<?xml version="1.0" encoding="utf-8"?>
<!-- Generator: Adobe Illustrator 26.5.0, SVG Export Plug-In . SVG Version: 6.00 Build 0)  -->
<svg version="1.1" id="Layer_1" xmlns="http://www.w3.org/2000/svg" xmlns:xlink="http://www.w3.org/1999/xlink" x="0px" y="0px"
	 viewBox="0 0 233.4 79.3" style="enable-background:new 0 0 233.4 79.3;" xml:space="preserve">
<style type="text/css">
	.st0{fill:#C01718;}
	.st1{fill:#FFFFFF;}
	.st2{fill:#010000;}
	.st3{fill:#222222;}
	.st4{fill:#B0B0B0;}
</style>
<g>
	<g>
		<path class="st4" d="M54,5.5h10.6V8h-7.5v4.7h6V15h-6v5H65v2.5H54V5.5z"/>
		<path class="st4" d="M68.1,5.5h3.2V20h7.2v2.5H68.1V5.5z"/>
		<path class="st4" d="M81.5,5.5h3.2v17h-3.2V5.5z"/>
		<path class="st4" d="M87.9,17.2h3c0.2,1.7,0.9,3.1,3.8,3.1c1.9,0,3.2-1,3.2-2.6c0-1.6-0.8-2.2-3.5-2.6c-4.1-0.5-6-1.8-6-5
			c0-2.8,2.4-4.9,5.9-4.9c3.7,0,5.8,1.7,6.2,4.9h-2.9c-0.3-1.8-1.3-2.5-3.3-2.5c-1.9,0-2.9,0.9-2.9,2.2c0,1.4,0.6,2.1,3.5,2.5
			c4,0.5,6.1,1.7,6.1,5.1c0,2.9-2.5,5.2-6.2,5.2C90.1,22.7,88.1,20.4,87.9,17.2z"/>
		<path class="st4" d="M108,5.5h4.1l5.6,17h-3.3l-1.4-4.2h-6.5l-1.3,4.2h-3L108,5.5z M107.4,16h5l-2.5-7.9L107.4,16z"/>
		<path class="st4" d="M117.6,5.5h3.3l4.4,13.8l4.4-13.8h3l-5.7,17h-3.7L117.6,5.5z"/>
		<path class="st4" d="M138.2,5.5h4.1l5.6,17h-3.3l-1.4-4.2h-6.5l-1.3,4.2h-3L138.2,5.5z M137.5,16h5L140,8.1L137.5,16z"/>
	</g>
	<g>
		<path class="st4" d="M54.2,31.7h5.2v0.9h-4.1v3.1h3.2v0.9h-3.2v4h-1.1V31.7z"/>
		<path class="st4" d="M62.7,31.7h1.4l3,8.8h-1.1L65.2,38h-3.6l-0.9,2.5h-1L62.7,31.7z M61.9,37.1h3.1l-1.5-4.5L61.9,37.1z"/>
		<path class="st4" d="M67.9,36.2L67.9,36.2c0-2.7,1.8-4.6,4.2-4.6c1.8,0,3.4,1,3.6,2.9h-1.1c-0.2-1.3-1-2-2.5-2
			c-1.8,0-3.1,1.4-3.1,3.6v0.1c0,2.2,1.1,3.6,3,3.6c1.4,0,2.4-0.7,2.7-2.2h1c-0.3,2-1.7,3-3.7,3C69.5,40.7,67.9,38.9,67.9,36.2z"/>
		<path class="st4" d="M77.4,37.3v-5.6h1.1v5.5c0,1.9,0.7,2.6,2.1,2.6c1.4,0,2.2-0.6,2.2-2.7v-5.3h1.1v5.5c0,2.2-1.1,3.5-3.3,3.5
			C78.5,40.7,77.4,39.5,77.4,37.3z"/>
		<path class="st4" d="M86.2,31.7h1.1v8h4v0.9h-5.1V31.7z"/>
		<path class="st4" d="M93.8,32.6h-2.6v-0.9h6.2v0.9h-2.6v8h-1.1V32.6z"/>
		<path class="st4" d="M100.5,31.7h1.4l3,8.8h-1.1L103,38h-3.6l-0.9,2.5h-1L100.5,31.7z M99.6,37.1h3.1l-1.5-4.5L99.6,37.1z"/>
		<path class="st4" d="M107.6,32.6H105v-0.9h6.2v0.9h-2.6v8h-1.1V32.6z"/>
		<path class="st4" d="M116.2,31.7h2.3c3,0,4.5,1.9,4.5,4.3v0.1c0,2.4-1.4,4.4-4.5,4.4h-2.3V31.7z M118.5,39.7
			c2.3,0,3.4-1.4,3.4-3.5V36c0-2-1-3.5-3.4-3.5h-1.2v7.1H118.5z"/>
		<path class="st4" d="M124.9,31.7h5.2v0.9H126v3h3.3v0.9H126v3.2h4.3v0.9h-5.4V31.7z"/>
		<path class="st4" d="M135.4,31.7h2.3c3,0,4.5,1.9,4.5,4.3v0.1c0,2.4-1.4,4.4-4.5,4.4h-2.3V31.7z M137.7,39.7
			c2.3,0,3.4-1.4,3.4-3.5V36c0-2-1-3.5-3.4-3.5h-1.2v7.1H137.7z"/>
		<path class="st4" d="M144.2,31.7h1.1v8.8h-1.1V31.7z"/>
		<path class="st4" d="M147.1,37.9h1c0.1,1.1,0.6,1.9,2.3,1.9c1.1,0,2-0.7,2-1.7c0-1-0.5-1.4-2.1-1.7c-1.9-0.3-3-0.9-3-2.4
			c0-1.4,1.2-2.4,2.8-2.4c1.8,0,2.9,0.9,3,2.4h-1c-0.2-1.1-0.9-1.6-2.1-1.6c-1.2,0-1.8,0.6-1.8,1.4c0,0.9,0.3,1.3,2.1,1.6
			c2,0.3,3,0.9,3,2.6c0,1.5-1.3,2.6-3.1,2.6C148.2,40.7,147.3,39.4,147.1,37.9z"/>
		<path class="st4" d="M154.8,37.9h1c0.1,1.1,0.6,1.9,2.3,1.9c1.1,0,2-0.7,2-1.7c0-1-0.5-1.4-2.1-1.7c-1.9-0.3-3-0.9-3-2.4
			c0-1.4,1.2-2.4,2.8-2.4c1.8,0,2.9,0.9,3,2.4h-1c-0.2-1.1-0.9-1.6-2.1-1.6c-1.2,0-1.8,0.6-1.8,1.4c0,0.9,0.3,1.3,2.1,1.6
			c2,0.3,3,0.9,3,2.6c0,1.5-1.3,2.6-3.1,2.6C155.8,40.7,155,39.4,154.8,37.9z"/>
		<path class="st4" d="M163.2,31.7h5.2v0.9h-4.1v3h3.3v0.9h-3.3v3.2h4.3v0.9h-5.4V31.7z"/>
		<path class="st4" d="M170.3,31.7h1.4L176,39v-7.3h1v8.8h-1.2l-4.5-7.6v7.6h-1V31.7z"/>
		<path class="st4" d="M181.5,36.7l-3-5h1.2l2.3,4.1l2.2-4.1h1.1l-2.8,5v3.8h-1.1V36.7z"/>
	</g>
	<g>
		<path class="st4" d="M54.2,46.6h1.1v8.8h-1.1V46.6z"/>
		<path class="st4" d="M61.1,46.6h5.2v0.9h-4.1v3h3.3v0.9h-3.3v3.2h4.3v0.9h-5.4V46.6z"/>
		<path class="st4" d="M68.2,46.6h1.4l4.3,7.3v-7.3h1v8.8h-1.2l-4.5-7.6v7.6h-1V46.6z"/>
		<path class="st4" d="M76.8,51.1L76.8,51.1c0-2.7,1.7-4.6,4.3-4.6c1.8,0,3.3,0.8,3.6,2.8h-1.1c-0.2-1.4-1.2-2-2.5-2
			c-2,0-3.2,1.5-3.2,3.6v0.1c0,2.2,1.1,3.6,3.2,3.6c1.9,0,2.7-1.2,2.8-2.8h-2.6V51h3.6v0.7c0,2.6-1.6,3.9-3.8,3.9
			C78.4,55.6,76.8,53.7,76.8,51.1z"/>
		<path class="st4" d="M86.9,46.6H88v8.8h-1.1V46.6z"/>
		<path class="st4" d="M90.4,46.6h1.4l4.3,7.3v-7.3h1v8.8h-1.2l-4.5-7.6v7.6h-1V46.6z"/>
		<path class="st4" d="M101.6,51.6l-3-5h1.2l2.3,4.1l2.2-4.1h1.1l-2.8,5v3.8h-1.1V51.6z"/>
		<path class="st4" d="M107,46.6h5.2v0.9H108v3h3.3v0.9H108v3.2h4.3v0.9H107V46.6z"/>
		<path class="st4" d="M114.1,46.6h2.7c1.7,0,3.1,0.7,3.1,2.5v0c0,1.5-1,2.2-2.2,2.4l2.7,3.9h-1.2l-2.6-3.8h-1.4v3.8h-1.1V46.6z
			 M116.8,50.8c1.3,0,1.9-0.5,1.9-1.6v0c0-1.2-0.7-1.6-1.9-1.6h-1.7v3.3H116.8z"/>
		<path class="st4" d="M122,46.6h1.1v8.8H122V46.6z"/>
		<path class="st4" d="M127.9,46.6h1.4l3,8.8h-1.1l-0.9-2.5h-3.6l-0.9,2.5h-1L127.9,46.6z M127,52.1h3.1l-1.5-4.5L127,52.1z"/>
		<path class="st4" d="M137.3,46.6h2.3c3,0,4.5,1.9,4.5,4.3v0.1c0,2.4-1.4,4.4-4.5,4.4h-2.3V46.6z M139.6,54.6
			c2.3,0,3.4-1.4,3.4-3.5V51c0-2-1-3.5-3.4-3.5h-1.2v7.1H139.6z"/>
		<path class="st4" d="M146,46.6h5.2v0.9h-4.1v3h3.3v0.9h-3.3v3.2h4.3v0.9H146V46.6z"/>
		<path class="st4" d="M156.6,46.6h2.7c1.6,0,2.8,0.5,2.8,2.3v0c0,0.8-0.3,1.5-1.3,1.9c1.3,0.3,1.8,1,1.8,2.1v0
			c0,1.7-1.1,2.5-2.9,2.5h-3V46.6z M159.2,50.5c1.3,0,1.8-0.5,1.8-1.6v0c0-1-0.6-1.4-1.8-1.4h-1.6v3H159.2z M159.6,54.6
			c1.3,0,1.9-0.6,1.9-1.6v0c0-1.1-0.6-1.6-2-1.6h-1.8v3.3H159.6z"/>
		<path class="st4" d="M166.6,46.6h1.4l3,8.8H170l-0.9-2.5h-3.6l-0.9,2.5h-1L166.6,46.6z M165.7,52.1h3.1l-1.5-4.5L165.7,52.1z"/>
		<path class="st4" d="M172.7,46.6h2.7c1.7,0,3.1,0.7,3.1,2.5v0c0,1.5-1,2.2-2.2,2.4l2.7,3.9h-1.2l-2.6-3.8h-1.4v3.8h-1.1V46.6z
			 M175.4,50.8c1.3,0,1.9-0.5,1.9-1.6v0c0-1.2-0.7-1.6-1.9-1.6h-1.7v3.3H175.4z"/>
		<path class="st4" d="M180,51.1L180,51.1c0-2.7,1.8-4.6,4.2-4.6c1.8,0,3.4,1,3.6,2.9h-1.1c-0.2-1.3-1-2-2.5-2
			c-1.8,0-3.1,1.4-3.1,3.6v0.1c0,2.2,1.1,3.6,3,3.6c1.4,0,2.4-0.7,2.7-2.2h1c-0.3,2-1.7,3-3.7,3C181.6,55.6,180,53.8,180,51.1z"/>
		<path class="st4" d="M189.6,46.6h5.2v0.9h-4.1v3h3.3v0.9h-3.3v3.2h4.3v0.9h-5.4V46.6z"/>
		<path class="st4" d="M196.7,46.6h1.1v8h4v0.9h-5.1V46.6z"/>
		<path class="st4" d="M202.6,51.1L202.6,51.1c0-2.6,1.8-4.6,4.4-4.6s4.3,2,4.3,4.5v0.1c0,2.5-1.7,4.5-4.3,4.5
			C204.4,55.6,202.6,53.6,202.6,51.1z M210.2,51.1L210.2,51.1c0-2.1-1.2-3.7-3.2-3.7c-2.1,0-3.2,1.5-3.2,3.6v0.1
			c0,2.1,1.4,3.6,3.3,3.6C209,54.7,210.2,53.2,210.2,51.1z"/>
		<path class="st4" d="M213.2,46.6h1.4l4.3,7.3v-7.3h1v8.8h-1.2l-4.5-7.6v7.6h-1V46.6z"/>
		<path class="st4" d="M224.6,46.6h1.4l3,8.8H228l-0.9-2.5h-3.6l-0.9,2.5h-1L224.6,46.6z M223.8,52.1h3.1l-1.5-4.5L223.8,52.1z"/>
	</g>
	<g>
		<path class="st4" d="M54,71.5v-5.2h1v5.1c0,1.7,0.6,2.4,2,2.4c1.3,0,2.1-0.5,2.1-2.5v-4.9h1v5c0,2-1,3.2-3.1,3.2
			C55.1,74.6,54,73.5,54,71.5z"/>
		<path class="st4" d="M61.5,66.3h1l2.4,7.2l2.4-7.2h0.9l-2.8,8.1h-1.2L61.5,66.3z"/>
		<path class="st4" d="M69.8,66.3h1v8.1h-1V66.3z"/>
		<path class="st4" d="M72.6,70.5L72.6,70.5c0-2.5,1.6-4.3,3.8-4.3c1.7,0,3.1,0.9,3.3,2.7h-1c-0.2-1.2-0.9-1.9-2.3-1.9
			c-1.7,0-2.8,1.3-2.8,3.4v0.1c0,2.1,1,3.3,2.8,3.3c1.3,0,2.3-0.7,2.5-2h0.9c-0.3,1.9-1.6,2.8-3.4,2.8C74,74.6,72.6,73,72.6,70.5z"
			/>
		<path class="st4" d="M81.3,70.8c0-0.4,0.3-0.7,0.7-0.7c0.4,0,0.7,0.3,0.7,0.7s-0.3,0.7-0.7,0.7C81.6,71.5,81.3,71.2,81.3,70.8z"/>
		<path class="st4" d="M84.7,71.5v-5.2h1v5.1c0,1.7,0.6,2.4,2,2.4c1.3,0,2.1-0.5,2.1-2.5v-4.9h1v5c0,2-1,3.2-3.1,3.2
			C85.7,74.6,84.7,73.5,84.7,71.5z"/>
		<path class="st4" d="M92.4,70.5L92.4,70.5c0-2.5,1.6-4.3,3.8-4.3c1.7,0,3.1,0.9,3.3,2.7h-1c-0.2-1.2-0.9-1.9-2.3-1.9
			c-1.7,0-2.8,1.3-2.8,3.4v0.1c0,2.1,1,3.3,2.8,3.3c1.3,0,2.3-0.7,2.5-2h0.9c-0.3,1.9-1.6,2.8-3.4,2.8C93.8,74.6,92.4,73,92.4,70.5z
			"/>
		<path class="st4" d="M100.8,70.5L100.8,70.5c0-2.5,1.6-4.3,3.8-4.3c1.7,0,3.1,0.9,3.3,2.7h-1c-0.2-1.2-0.9-1.9-2.3-1.9
			c-1.7,0-2.8,1.3-2.8,3.4v0.1c0,2.1,1,3.3,2.8,3.3c1.3,0,2.3-0.7,2.5-2h0.9c-0.3,1.9-1.6,2.8-3.4,2.8
			C102.3,74.6,100.8,73,100.8,70.5z"/>
	</g>
	<path class="st4" d="M37.9,4.7H6.7c-1.2,0-2.2,1-2.2,2.2v31.2c0,1.2,1,2.2,2.2,2.2h31.2c1.2,0,2.2-1,2.2-2.2V6.9
		C40.2,5.7,39.2,4.7,37.9,4.7z M29.2,22.7c0,4.7-2.8,7.2-7,7.2c-4.2,0-6.9-2.5-6.9-7V16h5.2v6.7c0,1.7,0.7,2.2,1.8,2.2
		c1.1,0,1.8-0.5,1.8-2.1V16h5.1V22.7z"/>
</g>
</svg>
